<svg xmlns="http://www.w3.org/2000/svg" id="sw-js-blob-svg" viewBox="0 0 100 100" version="1.1">
                    <defs> 
                        <linearGradient id="sw-gradient" x1="0" x2="1" y1="1" y2="0">
                            <stop id="stop1" stopColor="rgba(0, 21, 39, 0.6)" offset="0%"/>
                            <stop id="stop2" stopColor="rgba(0, 21, 39, 1)" offset="100%"/>
                        </linearGradient>
                    </defs>
                <path fill="url(#sw-gradient)" d="M17.7,-29.8C24.8,-26.5,33.9,-25.6,37.4,-21.1C40.9,-16.5,38.8,-8.3,38.1,-0.4C37.4,7.4,38,14.9,35,20.3C32,25.7,25.4,29.1,18.9,33C12.5,36.9,6.2,41.3,-0.6,42.4C-7.4,43.4,-14.8,40.9,-20.7,36.7C-26.5,32.4,-30.8,26.3,-33.5,19.9C-36.3,13.5,-37.4,6.8,-37.6,-0.1C-37.7,-6.9,-36.9,-13.9,-33.6,-19.2C-30.2,-24.6,-24.4,-28.3,-18.4,-32.3C-12.4,-36.3,-6.2,-40.6,-0.5,-39.8C5.2,-39,10.5,-33.1,17.7,-29.8Z" width="100%" height="100%" transform="translate(50 50)" strokeWidth="0" style="transition: 0.3s;"/>
              </svg>