<svg id="sw-js-blob-svg" viewBox="0 0 100 100" xmlns="http://www.w3.org/2000/svg" version="1.1">
    <defs> 
        <linearGradient id="sw-gradient" x1="0" x2="1" y1="1" y2="0">
            <stop id="stop1" stopColor="rgba(0, 21, 39, 0.6)" offset="0%"></stop>
            <stop id="stop2" stopColor="rgba(0, 21, 39, 1)" offset="100%"></stop>
        </linearGradient>
    </defs>
<path fill="url(#sw-gradient)" d="M17.3,-29.3C23,-26.6,28.8,-23.3,30.7,-18.3C32.6,-13.3,30.6,-6.6,31.8,0.7C33,8,37.4,16.1,34.8,19.9C32.2,23.7,22.7,23.3,15.8,26.5C8.8,29.6,4.4,36.3,-1.4,38.8C-7.2,41.2,-14.4,39.4,-20.6,35.7C-26.7,32.1,-31.7,26.6,-34.6,20.4C-37.6,14.1,-38.5,7.1,-36.7,1.1C-34.8,-4.9,-30.1,-9.8,-27.7,-16.9C-25.2,-24,-24.9,-33.4,-20.7,-36.9C-16.5,-40.4,-8.2,-38.1,-1.2,-36C5.8,-33.8,11.5,-31.9,17.3,-29.3Z" width="100%" height="100%" transform="translate(50 50)" strokeWidth="0" style="transition: 0.3s;" stroke="url(#sw-gradient)"></path>
</svg>