<svg xmlns="http://www.w3.org/2000/svg" id="sw-js-blob-svg" viewBox="0 0 100 100" version="1.1">
                    <defs> 
                        <linearGradient id="sw-gradient" x1="0" x2="1" y1="1" y2="0">
                            <stop id="stop1" stopColor="rgba(0, 21, 39, 0.6)" offset="0%"/>
                            <stop id="stop2" stopColor="rgba(0, 21, 39, 1)" offset="100%"/>
                        </linearGradient>
                    </defs>
                <path fill="url(#sw-gradient)" d="M19.2,-33.7C25.5,-29.5,31.9,-25.8,34.4,-20.3C36.9,-14.7,35.6,-7.4,36.4,0.4C37.1,8.2,39.9,16.5,37.3,21.8C34.7,27.2,26.6,29.7,19.5,32.6C12.4,35.6,6.2,39,0,39.1C-6.3,39.2,-12.5,35.8,-17,31.4C-21.6,26.9,-24.4,21.3,-28.2,15.9C-31.9,10.5,-36.6,5.2,-36.6,0C-36.6,-5.2,-31.9,-10.5,-28.2,-15.9C-24.4,-21.3,-21.6,-26.9,-17.1,-32.3C-12.5,-37.6,-6.3,-42.6,0.1,-42.7C6.4,-42.8,12.8,-38,19.2,-33.7Z" width="100%" height="100%" transform="translate(50 50)" strokeWidth="0" style="transition: 0.3s;"/>
              </svg>